<?xml version="1.0" encoding="utf-8"?>
<svg viewBox="59.718 97.953 154.778 22.354" xmlns="http://www.w3.org/2000/svg">
  <text style="fill: rgb(60, 60, 59); font-family: Arial, sans-serif; font-size: 20px; letter-spacing: -0.3px; white-space: pre;" transform="matrix(1.112494, 0, 0, 1, -6.563186, -0.139085)"><tspan style="letter-spacing: -1.9px;" x="59.579" y="116.238">E</tspan><tspan style="letter-spacing: normal;">c</tspan><tspan>oSm   rtOffice</tspan></text>
  <path d="M 137.632 104.03 C 134.868 104.03 132.532 105.656 131.738 107.899 C 132.919 107.363 134.251 107.062 135.664 107.062 L 138.755 107.062 C 139.064 107.062 139.318 107.29 139.318 107.568 C 139.318 107.846 139.064 108.073 138.755 108.073 L 138.193 108.073 L 135.664 108.073 C 135.664 108.073 135.664 108.073 135.664 108.073 C 135.079 108.073 134.513 108.133 133.97 108.243 C 133.059 108.43 132.213 108.761 131.461 109.213 C 131.461 109.213 131.461 109.213 131.461 109.213 C 129.419 110.436 128.073 112.524 128.073 114.895 L 128.073 115.401 C 128.073 115.821 128.448 116.159 128.916 116.159 C 129.383 116.159 129.76 115.821 129.76 115.401 L 129.76 114.895 C 129.76 113.357 130.487 111.974 131.651 111.004 C 132.346 113.389 134.76 115.149 137.632 115.149 L 137.667 115.149 C 142.308 115.127 146.064 111.014 146.064 105.944 C 146.064 104.598 145.802 103.319 145.323 102.166 C 145.232 101.948 144.877 101.958 144.754 102.163 C 144.094 103.275 142.787 104.03 141.286 104.03 L 137.632 104.03 Z" style="fill: rgb(30, 210, 75); paint-order: stroke;"/>
</svg>